<svg xmlns="http://www.w3.org/2000/svg" xmlns:xlink="http://www.w3.org/1999/xlink" viewBox="0 0 430 430" width="430" height="430" preserveAspectRatio="xMidYMid meet" style="width: 100%; height: 100%; transform: translate3d(0px, 0px, 0px); content-visibility: visible;"><defs><clipPath id="__lottie_element_10"><rect width="430" height="430" x="0" y="0"/></clipPath><clipPath id="__lottie_element_12"><path d="M0,0 L430,0 L430,430 L0,430z"/></clipPath></defs><g clip-path="url(#__lottie_element_10)"><g clip-path="url(#__lottie_element_12)" transform="matrix(1,0,0,1,0,0)" opacity="1" style="display: block;"><g transform="matrix(1,0,0,1,219.17100524902344,215.5)" opacity="1" style="display: block;"><g opacity="1" transform="matrix(1,0,0,1,0,0)"><path class="primary" fill="rgb(0,0,0)" fill-opacity="1" d=" M45.76551818847656,-75.86627960205078 C43.814517974853516,-77.50928497314453 40.833518981933594,-76.123046875 40.833518981933594,-73.5720443725586 C40.833518981933594,-73.5720443725586 40.80403518676758,-32.52004623413086 40.80403518676758,-32.52004623413086 C40.80403518676758,-32.52004623413086 -191.87855529785156,-32.5 -191.87855529785156,-32.5 C-193.14474487304688,-32.5 -194.17100524902344,-31.156999588012695 -194.17100524902344,-29.5 C-194.17100524902344,-29.5 -194.17100524902344,29.5 -194.17100524902344,29.5 C-194.17100524902344,31.156999588012695 -193.14474487304688,32.5 -191.87855529785156,32.5 C-191.87855529785156,32.5 40.80403518676758,32.47995376586914 40.80403518676758,32.47995376586914 C40.80403518676758,32.47995376586914 40.833518981933594,73.5317153930664 40.833518981933594,73.5317153930664 C40.833518981933594,76.08271789550781 43.814517974853516,77.46895599365234 45.76551818847656,75.8259506225586 C45.76551818847656,75.8259506225586 133.1085205078125,2.27471661567688 133.1085205078125,2.27471661567688 C134.53152465820312,1.0757166147232056 134.53152465820312,-1.1160475015640259 133.1085205078125,-2.3150475025177 C133.1085205078125,-2.3150475025177 45.76551818847656,-75.86627960205078 45.76551818847656,-75.86627960205078z"/></g><g opacity="0.5" transform="matrix(1,0,0,1,0,0)" style="mix-blend-mode: multiply;"><path class="primary" fill="rgb(0,0,0)" fill-opacity="1" d=" M-194.17100524902344,29.47100067138672 C-194.17100524902344,29.47100067138672 -194.17100524902344,-0.028999999165534973 -194.17100524902344,-0.028999999165534973 C-194.17100524902344,-0.028999999165534973 134.17552185058594,-0.049047552049160004 134.17552185058594,-0.049047552049160004 C134.17552185058594,0.7989524602890015 133.8205108642578,1.6469523906707764 133.1085205078125,2.2459523677825928 C133.1085205078125,2.2459523677825928 45.76551818847656,75.79771423339844 45.76551818847656,75.79771423339844 C43.814517974853516,77.44071960449219 40.833518981933594,76.053955078125 40.833518981933594,73.5029525756836 C40.833518981933594,73.5029525756836 40.80403518676758,32.451717376708984 40.80403518676758,32.451717376708984 C40.80403518676758,32.451717376708984 -191.87855529785156,32.47100067138672 -191.87855529785156,32.47100067138672 C-193.14474487304688,32.47100067138672 -194.17100524902344,31.128000259399414 -194.17100524902344,29.47100067138672z"/></g></g></g></g></svg>